<svg height="512" viewBox="0 0 60 58" width="512" xmlns="http://www.w3.org/2000/svg"><g id="Page-1" fill="none" fill-rule="evenodd"><g id="006---Heart-In-Box" fill-rule="nonzero"><path id="Shape" d="m59.781 17.375c-.1657145-.2072013-.4069781-.3400545-.670678-.3693128-.2636998-.0292583-.5282179.0474769-.735322.2133128l-10.975 8.781h-34.8l-10.975-8.781c-.43133439-.345178-1.06082203-.2753344-1.406.156s-.27533439 1.060822.156 1.406l10.625 8.499v28.72c0 1.1045695.8954305 2 2 2h34c1.1045695 0 2-.8954305 2-2v-28.719l10.625-8.5c.2072013-.1657145.3400545-.4069781.3693128-.670678.0292583-.2636998-.0474769-.5282179-.2133128-.735322z" fill="#e64c3c"/><path id="Rectangle-path" d="m26 35.43h8v22.57h-8z" fill="#f29c1f"/><path id="Shape" d="m37 26v17l-7-6-7 6v-17z" fill="#f0c419"/><path id="Shape" d="m15 55c-.5522847 0-1-.4477153-1-1v-2c0-.5522847.4477153-1 1-1s1 .4477153 1 1v2c0 .5522847-.4477153 1-1 1z" fill="#c03a2b"/><path id="Shape" d="m15 49c-.5522847 0-1-.4477153-1-1v-18c0-.5522847.4477153-1 1-1s1 .4477153 1 1v18c0 .5522847-.4477153 1-1 1z" fill="#c03a2b"/><path id="Shape" d="m45 55c-.5522847 0-1-.4477153-1-1v-2c0-.5522847.4477153-1 1-1s1 .4477153 1 1v2c0 .5522847-.4477153 1-1 1z" fill="#c03a2b"/><path id="Shape" d="m45 49c-.5522847 0-1-.4477153-1-1v-18c0-.5522847.4477153-1 1-1s1 .4477153 1 1v18c0 .5522847-.4477153 1-1 1z" fill="#c03a2b"/><path id="Shape" d="m30 4.813s2.15-4.813 7-4.813c4.144 0 7 3.833 7 8.373 0 5.934-5.086 9.973-12.651 17.089-.7567082.7182274-1.9432918.7182274-2.7 0-7.563-7.116-12.649-11.155-12.649-17.089 0-4.54 2.856-8.373 7-8.373 4.85 0 7 4.813 7 4.813z" fill="#ff5364"/><path id="Shape" d="m20 9.373c-.5522847 0-1-.44771525-1-1 0-2.641 1.5-5.373 4-5.373.5522847 0 1 .44771525 1 1s-.4477153 1-1 1c-1.2 0-2 1.744-2 3.373 0 .55228475-.4477153 1-1 1z" fill="#fb7b76"/><g fill="#f0c419"><path id="Shape" d="m46.707 18.293c-.3904999-.3903819-1.0235001-.3903819-1.414 0l-.293.293-.293-.293c-.3923789-.3789722-1.0160848-.3735524-1.4018186.0121814s-.3911536 1.0094397-.0121814 1.4018186l.293.293-.293.293c-.2599566.2510745-.3642126.6228779-.2726972.9725073.0915155.3496295.3645604.6226744.7141899.7141899.3496294.0915154.7214328-.0127406.9725073-.2726972l.293-.293.293.293c.3923789.3789722 1.0160848.3735524 1.4018186-.0121814s.3911536-1.0094397.0121814-1.4018186l-.293-.293.293-.293c.3903819-.3904999.3903819-1.0235001 0-1.414z"/><path id="Shape" d="m55.414 15 .293-.293c.3789722-.3923789.3735524-1.0160848-.0121814-1.4018186s-1.0094397-.3911536-1.4018186-.0121814l-.293.293-.293-.293c-.3923789-.3789722-1.0160848-.3735524-1.4018186.0121814s-.3911536 1.0094397-.0121814 1.4018186l.293.293-.293.293c-.2599566.2510745-.3642126.6228779-.2726972.9725073.0915155.3496295.3645604.6226744.7141899.7141899.3496294.0915154.7214328-.0127406.9725073-.2726972l.293-.293.293.293c.3923789.3789722 1.0160848.3735524 1.4018186-.0121814s.3911536-1.0094397.0121814-1.4018186z"/><path id="Shape" d="m51.707 8.293-.293-.293.293-.293c.2599566-.25107447.3642126-.62287789.2726972-.97250732-.0915155-.34962944-.3645604-.6226744-.7141899-.71418984-.3496294-.09151544-.7214328.01274058-.9725073.27269716l-.293.293-.293-.293c-.2510745-.25995658-.6228779-.3642126-.9725073-.27269716-.3496295.09151544-.6226744.3645604-.7141899.71418984-.0915154.34962943.0127406.72143285.2726972.97250732l.293.293-.293.293c-.2599566.25107447-.3642126.62287789-.2726972.97250732.0915155.34962944.3645604.6226744.7141899.71418984.3496294.09151544.7214328-.01274058.9725073-.27269716l.293-.293.293.293c.3923789.3789722 1.0160848.3735524 1.4018186-.01218142.3857338-.3857338.3911536-1.00943969.0121814-1.40181858z"/><path id="Shape" d="m16.414 20 .293-.293c.3789722-.3923789.3735524-1.0160848-.0121814-1.4018186s-1.0094397-.3911536-1.4018186-.0121814l-.293.293-.293-.293c-.3923789-.3789722-1.0160848-.3735524-1.4018186.0121814s-.3911536 1.0094397-.0121814 1.4018186l.293.293-.293.293c-.2599566.2510745-.3642126.6228779-.2726972.9725073.0915155.3496295.3645604.6226744.7141899.7141899.3496294.0915154.7214328-.0127406.9725073-.2726972l.293-.293.293.293c.3923789.3789722 1.0160848.3735524 1.4018186-.0121814s.3911536-1.0094397.0121814-1.4018186z"/><path id="Shape" d="m7.707 13.293c-.39049985-.3903819-1.02350015-.3903819-1.414 0l-.293.293-.293-.293c-.39237889-.3789722-1.01608478-.3735524-1.40181858.0121814-.38573379.3857338-.39115363 1.0094397-.01218142 1.4018186l.293.293-.293.293c-.25995658.2510745-.3642126.6228779-.27269716.9725073.09151544.3496295.3645604.6226744.71418984.7141899.34962943.0915154.72143285-.0127406.97250732-.2726972l.293-.293.293.293c.25107447.2599566.62287789.3642126.97250732.2726972.34962944-.0915155.6226744-.3645604.71418984-.7141899.09151544-.3496294-.01274058-.7214328-.27269716-.9725073l-.293-.293.293-.293c.39038194-.3904999.39038194-1.0235001 0-1.414z"/><path id="Shape" d="m11.707 6.293c-.3904999-.39038194-1.0235001-.39038194-1.414 0l-.293.293-.293-.293c-.25107447-.25995658-.62287789-.3642126-.97250732-.27269716-.34962944.09151544-.6226744.3645604-.71418984.71418984-.09151544.34962943.01274058.72143285.27269716.97250732l.293.293-.293.293c-.25995658.25107447-.3642126.62287789-.27269716.97250732.09151544.34962944.3645604.6226744.71418984.71418984.34962943.09151544.72143285-.01274058.97250732-.27269716l.293-.293.293.293c.3923789.3789722 1.0160848.3735524 1.4018186-.01218142.3857338-.3857338.3911536-1.00943969.0121814-1.40181858l-.293-.293.293-.293c.3903819-.39049985.3903819-1.02350015 0-1.414z"/></g></g></g></svg>