<svg id="Layer_1" enable-background="new 0 0 512.125 512.125" height="512" viewBox="0 0 512.125 512.125" width="512" xmlns="http://www.w3.org/2000/svg"><g><path d="m44.353 380.582h80.683v93.697h-80.683z" fill="#e1ebf0" transform="matrix(.707 -.707 .707 .707 -277.433 185.081)"/><path d="m60.963 420.68h80.683v46.719h-80.683z" fill="#b4d2d7" transform="matrix(.707 -.707 .707 .707 -284.311 201.688)"/><path d="m73.601 220.068h270.539v166.373h-270.539z" fill="#fff5f5" transform="matrix(.707 -.707 .707 .707 -153.257 236.516)"/><path d="m103.058 291.183h270.539v83.057h-270.539z" fill="#e1ebf0" transform="matrix(.707 -.707 .707 .707 -165.458 265.971)"/><g><path d="m385.539 43.647h135.879v30h-135.879z" fill="#e1ebf0" transform="matrix(.707 -.707 .707 .707 91.351 337.835)"/></g><path d="m390.888 56.561h135.879v14.87h-135.879z" fill="#b4d2d7" transform="matrix(.707 -.707 .707 .707 89.136 343.184)"/><g><path d="m97.76 288.715h30v221.302h-30z" fill="#0b799d" transform="matrix(.707 -.707 .707 .707 -249.368 196.705)"/></g><path d="m338.569 81.324h90.769v93.697h-90.769z" fill="#0b799d" transform="matrix(.707 -.707 .707 .707 21.827 309.04)"/><path d="m355.178 121.422h90.769v46.719h-90.769z" fill="#07485e" transform="matrix(.707 -.707 .707 .707 14.946 325.645)"/><g><path d="m40.647 392.783h30v127.392h-30z" fill="#0b799d" transform="matrix(.707 -.707 .707 .707 -306.481 173.048)"/></g><path d="m264.716 100.747h126.951v166.374h-126.951z" fill="#a5e887" transform="matrix(.707 -.707 .707 .707 -33.936 285.939)"/><g fill="#0b799d"><path d="m106.714 285.504h30v61.496h-30z" transform="matrix(.707 -.707 .707 .707 -187.975 178.693)"/><path d="m151.754 240.464h30v61.496h-30z" transform="matrix(.707 -.707 .707 .707 -142.935 197.349)"/><path d="m196.795 195.424h30v61.496h-30z" transform="matrix(.707 -.707 .707 .707 -97.895 216.006)"/></g><path d="m294.173 171.862h126.951v83.057h-126.951z" fill="#00cc76" transform="matrix(.707 -.707 .707 .707 -46.138 315.396)"/><path d="m63.213 447.261h30v63.567h-30z" fill="#07485e" transform="matrix(.707 -.707 .707 .707 -315.828 195.613)"/><path d="m136.926 383.272h30v110.521h-30z" fill="#07485e" transform="matrix(.707 -.707 .707 .707 -265.591 235.871)"/></g></svg>